<svg width="226" height="30" viewBox="0 0 226 30" fill="none" xmlns="http://www.w3.org/2000/svg">
<path d="M13.48 28V28.64H0.2V28H2.76V1.64H0.2V0.999998H22.88V10.52H22.24C22.24 7.53333 21.6133 5.30667 20.36 3.84C19.1333 2.37333 16.9867 1.64 13.92 1.64H10.92V13.96H12.8C16.32 13.96 18.08 12.0533 18.08 8.24H18.72V20.44H18.08C18.08 18.52 17.6 17.0667 16.64 16.08C15.7067 15.0933 14.3733 14.6 12.64 14.6H10.92V28H13.48ZM44.0781 28.52C42.5315 29.1067 40.8381 29.4 38.9981 29.4C37.1581 29.4 35.4648 29.12 33.9181 28.56C32.3715 27.9733 31.0648 27.2133 29.9981 26.28C28.9581 25.32 28.0781 24.2 27.3581 22.92C25.9715 20.4933 25.2781 17.76 25.2781 14.72C25.2781 11.1467 26.3581 7.90667 28.5181 5C29.5848 3.58666 31.0248 2.44 32.8381 1.56C34.6515 0.679998 36.7048 0.239998 38.9981 0.239998C41.2915 0.239998 43.3448 0.666665 45.1581 1.52C46.9715 2.34667 48.4115 3.45333 49.4781 4.84C51.6381 7.69333 52.7181 10.9867 52.7181 14.72C52.7181 17.76 52.0248 20.4933 50.6381 22.92C49.1181 25.6133 46.9315 27.48 44.0781 28.52ZM36.3181 27.52C36.9848 28.2667 37.8781 28.64 38.9981 28.64C40.1181 28.64 41.0115 28.2667 41.6781 27.52C42.3448 26.7467 42.8648 25.3333 43.2381 23.28C43.6381 21.2 43.8381 18.3467 43.8381 14.72C43.8381 11.0933 43.6381 8.26667 43.2381 6.24C42.8648 4.18667 42.3448 2.8 41.6781 2.08C41.0115 1.36 40.1181 0.999998 38.9981 0.999998C37.8781 0.999998 36.9848 1.36 36.3181 2.08C35.6515 2.8 35.1181 4.18667 34.7181 6.24C34.3448 8.26667 34.1581 11.0933 34.1581 14.72C34.1581 18.3467 34.3448 21.2 34.7181 23.28C35.1181 25.3333 35.6515 26.7467 36.3181 27.52ZM73.9219 28.52C72.3752 29.1067 70.6819 29.4 68.8419 29.4C67.0019 29.4 65.3085 29.12 63.7619 28.56C62.2152 27.9733 60.9085 27.2133 59.8419 26.28C58.8019 25.32 57.9219 24.2 57.2019 22.92C55.8152 20.4933 55.1219 17.76 55.1219 14.72C55.1219 11.1467 56.2019 7.90667 58.3619 5C59.4285 3.58666 60.8685 2.44 62.6819 1.56C64.4952 0.679998 66.5485 0.239998 68.8419 0.239998C71.1352 0.239998 73.1885 0.666665 75.0019 1.52C76.8152 2.34667 78.2552 3.45333 79.3219 4.84C81.4819 7.69333 82.5619 10.9867 82.5619 14.72C82.5619 17.76 81.8685 20.4933 80.4819 22.92C78.9619 25.6133 76.7752 27.48 73.9219 28.52ZM66.1619 27.52C66.8285 28.2667 67.7219 28.64 68.8419 28.64C69.9619 28.64 70.8552 28.2667 71.5219 27.52C72.1885 26.7467 72.7085 25.3333 73.0819 23.28C73.4819 21.2 73.6819 18.3467 73.6819 14.72C73.6819 11.0933 73.4819 8.26667 73.0819 6.24C72.7085 4.18667 72.1885 2.8 71.5219 2.08C70.8552 1.36 69.9619 0.999998 68.8419 0.999998C67.7219 0.999998 66.8285 1.36 66.1619 2.08C65.4952 2.8 64.9619 4.18667 64.5619 6.24C64.1885 8.26667 64.0019 11.0933 64.0019 14.72C64.0019 18.3467 64.1885 21.2 64.5619 23.28C64.9619 25.3333 65.4952 26.7467 66.1619 27.52ZM95.8056 28H97.1256C99.5256 28 101.312 26.9867 102.486 24.96C103.659 22.9067 104.246 19.4533 104.246 14.6C104.246 9.74667 103.646 6.38666 102.446 4.52C101.272 2.62667 99.5923 1.68 97.4056 1.68H95.8056V28ZM97.9256 28.64H85.0856V28H87.6456V1.68H85.0856V0.999998H97.5256C102.939 0.999998 106.886 2.21333 109.366 4.64C111.872 7.04 113.126 10.32 113.126 14.48C113.126 18.56 111.979 21.88 109.686 24.44C108.512 25.7733 106.926 26.8133 104.926 27.56C102.926 28.28 100.592 28.64 97.9256 28.64ZM131.994 0.999998H144.794V1.64C141.301 1.64 139.554 4.09333 139.554 9V16.92C139.554 21.3467 138.834 24.5333 137.394 26.48C135.954 28.4267 133.341 29.4 129.554 29.4C125.794 29.4 123.008 28.5733 121.194 26.92C119.648 25.5067 118.661 23.1867 118.234 19.96C118.074 18.6 117.994 16.96 117.994 15.04V1.64H115.434V0.999998H128.714V1.64H126.154V14.76C126.154 19.08 126.434 22.0533 126.994 23.68C127.688 25.68 128.581 26.9733 129.674 27.56C130.341 27.9333 131.141 28.12 132.074 28.12C133.008 28.12 133.848 27.9867 134.594 27.72C135.341 27.4267 135.954 27.0133 136.434 26.48C136.941 25.92 137.354 25.32 137.674 24.68C137.994 24.0133 138.234 23.2267 138.394 22.32C138.688 20.6667 138.834 18.8533 138.834 16.88V9C138.834 6.49333 138.301 4.64 137.234 3.44C136.168 2.24 134.421 1.64 131.994 1.64V0.999998ZM169.369 29.08C168.489 28.6533 167.516 28.44 166.449 28.44C165.383 28.44 164.116 28.6 162.649 28.92C161.209 29.24 159.903 29.4 158.729 29.4C153.156 29.4 149.209 27.4533 146.889 23.56C145.503 21.1867 144.809 18.24 144.809 14.72C144.809 11.1467 145.889 7.90667 148.049 5C149.116 3.58666 150.556 2.44 152.369 1.56C154.183 0.679998 156.236 0.239998 158.529 0.239998C159.943 0.239998 161.263 0.479998 162.489 0.959999C163.743 1.41333 164.623 1.64 165.129 1.64C165.636 1.64 166.036 1.53333 166.329 1.32C166.649 1.08 166.903 0.719999 167.089 0.239998H167.609V11.6H167.089C166.823 10.6933 166.636 10.0533 166.529 9.68C166.423 9.28 166.209 8.62667 165.889 7.72C165.569 6.81333 165.289 6.13333 165.049 5.68C164.809 5.2 164.476 4.61333 164.049 3.92C163.623 3.2 163.209 2.66666 162.809 2.32C161.743 1.44 160.623 0.999998 159.449 0.999998C157.423 0.999998 155.956 2.08 155.049 4.24C154.143 6.4 153.689 9.85333 153.689 14.6C153.689 19.32 154.129 22.8267 155.009 25.12C155.916 27.3867 157.449 28.52 159.609 28.52C160.303 28.52 160.916 28.4667 161.449 28.36V17.2H159.129V16.56H171.329V17.2H169.369V29.08ZM197.965 28V28.64H185.085V28H187.685L184.605 19.12H178.005L176.605 23.24C176.258 24.28 176.085 25.0533 176.085 25.56C176.085 26.4933 176.392 27.1333 177.005 27.48C177.645 27.8267 178.538 28 179.685 28H181.085V28.64H170.805V28C171.605 28 172.258 27.92 172.765 27.76C173.298 27.5733 173.752 27.2267 174.125 26.72C174.498 26.1867 174.765 25.72 174.925 25.32C175.112 24.92 175.378 24.2133 175.725 23.2L182.645 3.6C182.858 2.98666 183.058 2.50667 183.245 2.16C183.432 1.81333 183.818 1.46667 184.405 1.12C185.018 0.746666 185.792 0.559999 186.725 0.559999L196.285 28H197.965ZM181.325 9.6L178.245 18.48H184.405L181.325 9.6ZM196.684 1.64V0.999998H204.884C205.977 0.999998 206.871 1.18666 207.564 1.56C208.284 1.90667 209.031 2.69333 209.804 3.92L219.924 20.2H220.084V10.36C220.084 6.30667 219.737 3.85333 219.044 3C218.271 2.09333 217.111 1.64 215.564 1.64H214.244V0.999998H225.884V1.64H225.404C223.884 1.69333 222.844 2.09333 222.284 2.84C221.964 3.24 221.697 3.65333 221.484 4.08C221.297 4.48 221.164 5.06666 221.084 5.84C220.951 7.12 220.884 8.64 220.884 10.4V28.64H218.524C217.431 28.64 216.524 28.4667 215.804 28.12C215.111 27.7467 214.377 26.9467 213.604 25.72L201.764 7.08V20.08C201.764 23.9733 202.111 26.2533 202.804 26.92C203.577 27.64 204.737 28 206.284 28H207.044V28.64H195.804V28H196.444C198.017 27.9467 199.177 27.52 199.924 26.72C200.617 25.9733 200.964 23.7467 200.964 20.04V5.8L200.284 4.72C200.257 4.69333 200.164 4.54667 200.004 4.28C199.844 3.98667 199.724 3.78667 199.644 3.68C199.564 3.54667 199.431 3.36 199.244 3.12C199.057 2.85333 198.884 2.65333 198.724 2.52C198.564 2.38666 198.377 2.24 198.164 2.08C197.764 1.78667 197.271 1.64 196.684 1.64Z" fill="#333333"/>
</svg>
